G04 DesignSpark PCB Gerber Version 9.0 Build 5115 *
G04 #@! TF.Part,Single*
G04 #@! TF.FileFunction,Copper,L1,Top *
G04 #@! TF.FilePolarity,Positive *
%FSLAX35Y35*%
%MOIN*%
G04 #@! TA.AperFunction,ComponentPad*
%ADD18R,0.04449X0.04449*%
G04 #@! TD.AperFunction*
%ADD12C,0.00500*%
%ADD14C,0.01500*%
G04 #@! TA.AperFunction,ComponentPad*
%ADD19C,0.04449*%
G04 #@! TA.AperFunction,ViaPad*
%ADD15C,0.04800*%
G04 #@! TA.AperFunction,WasherPad*
%ADD16C,0.06000*%
%ADD17C,0.17500*%
G04 #@! TA.AperFunction,ComponentPad*
%ADD70R,0.08000X0.06000*%
X0Y0D02*
D02*
D12*
X250Y250D02*
X575250D01*
Y260250*
X250*
Y250*
D02*
D14*
X30250Y160250D02*
X70250D01*
X30250Y180250D02*
X115250D01*
X30250Y200250D02*
X180250D01*
X30250Y220250D02*
X305250D01*
X40250Y65250D02*
Y35250D01*
X45250Y65250D02*
Y74620D01*
X44620Y75250*
X45250Y65250D02*
X30250D01*
X50250Y150250D02*
X110250D01*
X55250Y170250D02*
X85250D01*
X60250Y190250D02*
X90250D01*
X70250Y35250D02*
Y65250D01*
X45250*
X70250Y160250D02*
X130250D01*
X75880Y135250D02*
Y145250D01*
X30250*
Y85250*
X75880Y145250D02*
X135880D01*
X85250Y170250D02*
X175250D01*
X90250Y190250D02*
X120250D01*
X95250Y210250D02*
X65250D01*
X100250Y65250D02*
Y35250D01*
Y65250D02*
X70250D01*
X105250D02*
Y74620D01*
X104620Y75250*
X105250Y65250D02*
X100250D01*
X110250Y150250D02*
X170250D01*
X115250Y180250D02*
X145250D01*
X120250Y190250D02*
X150250D01*
X125250Y210250D02*
X95250D01*
X130250Y65250D02*
Y35250D01*
Y65250D02*
X105250D01*
X130250Y160250D02*
X190250D01*
X135880Y135250D02*
Y145250D01*
X195880*
X145250Y180250D02*
X235250D01*
X150250Y190250D02*
X300250D01*
X155250Y210250D02*
X125250D01*
X160250Y65250D02*
Y35250D01*
Y65250D02*
X130250D01*
X165250D02*
Y74620D01*
X164620Y75250*
X165250Y65250D02*
X160250D01*
X170250Y150250D02*
X230250D01*
X175250Y170250D02*
X205250D01*
X180250Y200250D02*
X210250D01*
X185250Y210250D02*
X155250D01*
X190250Y65250D02*
Y35250D01*
Y65250D02*
X165250D01*
X190250Y160250D02*
X250250D01*
X195880Y135250D02*
Y145250D01*
X255880*
X205250Y170250D02*
X295250D01*
X210250Y200250D02*
X240250D01*
X215250Y210250D02*
X185250D01*
X220250Y65250D02*
Y35250D01*
Y65250D02*
X190250D01*
X225250D02*
Y74620D01*
X224620Y75250*
X225250Y65250D02*
X220250D01*
X230250Y150250D02*
X290250D01*
X235250Y180250D02*
X265250D01*
X240250Y200250D02*
X270250D01*
X245250Y210250D02*
X215250D01*
X250250Y65250D02*
Y35250D01*
Y65250D02*
X225250D01*
X250250Y160250D02*
X310250D01*
X255880Y135250D02*
Y145250D01*
X315880*
X265250Y180250D02*
X355250D01*
X270250Y200250D02*
X420250D01*
X275250Y210250D02*
X245250D01*
X280250Y65250D02*
Y35250D01*
Y65250D02*
X250250D01*
X285250D02*
Y74620D01*
X284620Y75250*
X285250Y65250D02*
X280250D01*
X290250Y150250D02*
X350250D01*
X295250Y170250D02*
X325250D01*
X300250Y190250D02*
X330250D01*
X310250Y65250D02*
Y35250D01*
Y65250D02*
X285250D01*
X310250Y160250D02*
X370250D01*
X315880Y135250D02*
Y145250D01*
X375880*
X325250Y170250D02*
X415250D01*
X330250Y190250D02*
X360250D01*
X335250Y220250D02*
X305250D01*
X340250Y65250D02*
Y35250D01*
Y65250D02*
X310250D01*
X345250D02*
Y74620D01*
X344620Y75250*
X345250Y65250D02*
X340250D01*
X350250Y150250D02*
X410250D01*
X355250Y180250D02*
X385250D01*
X360250Y190250D02*
X390250D01*
X365250Y220250D02*
X335250D01*
X365250D02*
X395250D01*
X370250Y65250D02*
Y35250D01*
Y65250D02*
X345250D01*
X370250Y160250D02*
X430250D01*
X375880Y135250D02*
Y145250D01*
X435880*
X385250Y180250D02*
X475250D01*
X390250Y190250D02*
X529620D01*
X395250Y220250D02*
X425250D01*
X400250Y65250D02*
Y35250D01*
Y65250D02*
X370250D01*
X405250D02*
Y74620D01*
X404620Y75250*
X405250Y65250D02*
X400250D01*
X410250Y150250D02*
X470250D01*
X415250Y170250D02*
X445250D01*
X420250Y200250D02*
X450250D01*
X430250Y65250D02*
Y35250D01*
Y65250D02*
X405250D01*
X430250Y160250D02*
X490250D01*
X435880Y135250D02*
Y145250D01*
X495250*
X445250Y170250D02*
X529620D01*
X450250Y200250D02*
X480250D01*
X455250Y220250D02*
X425250D01*
X460250Y65250D02*
Y35250D01*
Y65250D02*
X430250D01*
X464620Y75250D02*
X465250Y74620D01*
Y65250*
X490250*
X465250D02*
X460250D01*
X470250Y150250D02*
X560880D01*
Y160250*
X475250Y180250D02*
X505250D01*
X480250Y200250D02*
X510250D01*
X485250Y220250D02*
X455250D01*
X490250Y65250D02*
Y35250D01*
Y65250D02*
X530250D01*
X490250Y160250D02*
X525250D01*
Y165250*
X555250*
Y170250*
X560880*
X495250Y145250D02*
X565250D01*
Y220250*
X560880*
X495250Y145250D02*
Y135880D01*
X495880Y135250*
X505250Y180250D02*
X529620D01*
X510250Y200250D02*
X529620D01*
X515250Y220250D02*
X529620D01*
X515250D02*
X485250D01*
X529620Y210250D02*
X275250D01*
D02*
D15*
X50250Y150250D03*
X55250Y170250D03*
X60250Y190250D03*
X65250Y210250D03*
X70250Y160250D03*
X85250Y170250D03*
X90250Y190250D03*
X95250Y210250D03*
X110250Y150250D03*
X115250Y180250D03*
X120250Y190250D03*
X125250Y210250D03*
X130250Y160250D03*
X145250Y180250D03*
X150250Y190250D03*
X155250Y210250D03*
X170250Y150250D03*
X175250Y170250D03*
X180250Y200250D03*
X185250Y210250D03*
X190250Y160250D03*
X205250Y170250D03*
X210250Y200250D03*
X215250Y210250D03*
X230250Y150250D03*
X235250Y180250D03*
X240250Y200250D03*
X245250Y210250D03*
X250250Y160250D03*
X265250Y180250D03*
X270250Y200250D03*
X275250Y210250D03*
X290250Y150250D03*
X295250Y170250D03*
X300250Y190250D03*
X305250Y220250D03*
X310250Y160250D03*
X325250Y170250D03*
X330250Y190250D03*
X335250Y220250D03*
X350250Y150250D03*
X355250Y180250D03*
X360250Y190250D03*
X365250Y220250D03*
X370250Y160250D03*
X385250Y180250D03*
X390250Y190250D03*
X395250Y220250D03*
X410250Y150250D03*
X415250Y170250D03*
X420250Y200250D03*
X425250Y220250D03*
X430250Y160250D03*
X445250Y170250D03*
X450250Y200250D03*
X455250Y220250D03*
X470250Y150250D03*
X475250Y180250D03*
X480250Y200250D03*
X485250Y220250D03*
X490250Y160250D03*
X505250Y180250D03*
X510250Y200250D03*
X515250Y220250D03*
X530250Y65250D03*
D02*
D16*
X30250D03*
Y85250D03*
Y160250D03*
Y180250D03*
Y200250D03*
Y220250D03*
X55250Y45250D03*
Y55250D03*
X85250Y45250D03*
Y55250D03*
X115250Y45250D03*
Y55250D03*
X145250Y45250D03*
Y55250D03*
X175250Y45250D03*
Y55250D03*
X205250Y45250D03*
Y55250D03*
X235250Y45250D03*
Y55250D03*
X265250Y45250D03*
Y55250D03*
X295250Y45250D03*
Y55250D03*
X325250Y45250D03*
Y55250D03*
X355250Y45250D03*
Y55250D03*
X385250Y45250D03*
Y55250D03*
X415250Y45250D03*
Y55250D03*
X445250Y45250D03*
Y55250D03*
X475250Y45250D03*
Y55250D03*
X505250Y45250D03*
Y55250D03*
D02*
D17*
X20250Y20250D03*
Y240250D03*
X555250Y20250D03*
Y240250D03*
D02*
D18*
X44620Y135250D03*
X104620D03*
X164620D03*
X224620D03*
X284620D03*
X344620D03*
X404620D03*
X464620D03*
X529620Y220250D03*
D02*
D19*
X44620Y75250D03*
Y85250D03*
Y95250D03*
Y105250D03*
Y115250D03*
Y125250D03*
X75880Y75250D03*
Y85250D03*
Y95250D03*
Y105250D03*
Y115250D03*
Y125250D03*
Y135250D03*
X104620Y75250D03*
Y85250D03*
Y95250D03*
Y105250D03*
Y115250D03*
Y125250D03*
X135880Y75250D03*
Y85250D03*
Y95250D03*
Y105250D03*
Y115250D03*
Y125250D03*
Y135250D03*
X164620Y75250D03*
Y85250D03*
Y95250D03*
Y105250D03*
Y115250D03*
Y125250D03*
X195880Y75250D03*
Y85250D03*
Y95250D03*
Y105250D03*
Y115250D03*
Y125250D03*
Y135250D03*
X224620Y75250D03*
Y85250D03*
Y95250D03*
Y105250D03*
Y115250D03*
Y125250D03*
X255880Y75250D03*
Y85250D03*
Y95250D03*
Y105250D03*
Y115250D03*
Y125250D03*
Y135250D03*
X284620Y75250D03*
Y85250D03*
Y95250D03*
Y105250D03*
Y115250D03*
Y125250D03*
X315880Y75250D03*
Y85250D03*
Y95250D03*
Y105250D03*
Y115250D03*
Y125250D03*
Y135250D03*
X344620Y75250D03*
Y85250D03*
Y95250D03*
Y105250D03*
Y115250D03*
Y125250D03*
X375880Y75250D03*
Y85250D03*
Y95250D03*
Y105250D03*
Y115250D03*
Y125250D03*
Y135250D03*
X404620Y75250D03*
Y85250D03*
Y95250D03*
Y105250D03*
Y115250D03*
Y125250D03*
X435880Y75250D03*
Y85250D03*
Y95250D03*
Y105250D03*
Y115250D03*
Y125250D03*
Y135250D03*
X464620Y75250D03*
Y85250D03*
Y95250D03*
Y105250D03*
Y115250D03*
Y125250D03*
X495880Y75250D03*
Y85250D03*
Y95250D03*
Y105250D03*
Y115250D03*
Y125250D03*
Y135250D03*
X529620Y160250D03*
Y170250D03*
Y180250D03*
Y190250D03*
Y200250D03*
Y210250D03*
X560880Y160250D03*
Y170250D03*
Y180250D03*
Y190250D03*
Y200250D03*
Y210250D03*
Y220250D03*
D02*
D70*
X40250Y25250D03*
Y35250D03*
X70250Y25250D03*
Y35250D03*
X100250Y25250D03*
Y35250D03*
X130250Y25250D03*
Y35250D03*
X160250Y25250D03*
Y35250D03*
X190250Y25250D03*
Y35250D03*
X220250Y25250D03*
Y35250D03*
X250250Y25250D03*
Y35250D03*
X280250Y25250D03*
Y35250D03*
X310250Y25250D03*
Y35250D03*
X340250Y25250D03*
Y35250D03*
X370250Y25250D03*
Y35250D03*
X400250Y25250D03*
Y35250D03*
X430250Y25250D03*
Y35250D03*
X460250Y25250D03*
Y35250D03*
X490250Y25250D03*
Y35250D03*
X0Y0D02*
M02*
