G05
M48
INCH,TZ
FMAT,2
T1C000.02400
T2C000.02874
T3C000.03000
T4C000.03500
T5C000.12500
%
T001
X0.50250Y1.50250
X0.55250Y1.70250
X0.60250Y1.90250
X0.65250Y2.10250
X0.70250Y1.60250
X0.85250Y1.70250
X0.90250Y1.90250
X0.95250Y2.10250
X1.10250Y1.50250
X1.15250Y1.80250
X1.20250Y1.90250
X1.25250Y2.10250
X1.30250Y1.60250
X1.45250Y1.80250
X1.50250Y1.90250
X1.55250Y2.10250
X1.70250Y1.50250
X1.75250Y1.70250
X1.80250Y2.00250
X1.85250Y2.10250
X1.90250Y1.60250
X2.05250Y1.70250
X2.10250Y2.00250
X2.15250Y2.10250
X2.30250Y1.50250
X2.35250Y1.80250
X2.40250Y2.00250
X2.45250Y2.10250
X2.50250Y1.60250
X2.65250Y1.80250
X2.70250Y2.00250
X2.75250Y2.10250
X2.90250Y1.50250
X2.95250Y1.70250
X3.00250Y1.90250
X3.05250Y2.20250
X3.10250Y1.60250
X3.25250Y1.70250
X3.30250Y1.90250
X3.35250Y2.20250
X3.50250Y1.50250
X3.55250Y1.80250
X3.60250Y1.90250
X3.65250Y2.20250
X3.70250Y1.60250
X3.85250Y1.80250
X3.90250Y1.90250
X3.95250Y2.20250
X4.10250Y1.50250
X4.15250Y1.70250
X4.20250Y2.00250
X4.25250Y2.20250
X4.30250Y1.60250
X4.45250Y1.70250
X4.50250Y2.00250
X4.55250Y2.20250
X4.70250Y1.50250
X4.75250Y1.80250
X4.80250Y2.00250
X4.85250Y2.20250
X4.90250Y1.60250
X5.05250Y1.80250
X5.10250Y2.00250
X5.15250Y2.20250
X5.30250Y0.65250
T002
X0.44620Y0.75250
X0.44620Y0.85250
X0.44620Y0.95250
X0.44620Y1.05250
X0.44620Y1.15250
X0.44620Y1.25250
X0.44620Y1.35250
X0.75880Y0.75250
X0.75880Y0.85250
X0.75880Y0.95250
X0.75880Y1.05250
X0.75880Y1.15250
X0.75880Y1.25250
X0.75880Y1.35250
X1.04620Y0.75250
X1.04620Y0.85250
X1.04620Y0.95250
X1.04620Y1.05250
X1.04620Y1.15250
X1.04620Y1.25250
X1.04620Y1.35250
X1.35880Y0.75250
X1.35880Y0.85250
X1.35880Y0.95250
X1.35880Y1.05250
X1.35880Y1.15250
X1.35880Y1.25250
X1.35880Y1.35250
X1.64620Y0.75250
X1.64620Y0.85250
X1.64620Y0.95250
X1.64620Y1.05250
X1.64620Y1.15250
X1.64620Y1.25250
X1.64620Y1.35250
X1.95880Y0.75250
X1.95880Y0.85250
X1.95880Y0.95250
X1.95880Y1.05250
X1.95880Y1.15250
X1.95880Y1.25250
X1.95880Y1.35250
X2.24620Y0.75250
X2.24620Y0.85250
X2.24620Y0.95250
X2.24620Y1.05250
X2.24620Y1.15250
X2.24620Y1.25250
X2.24620Y1.35250
X2.55880Y0.75250
X2.55880Y0.85250
X2.55880Y0.95250
X2.55880Y1.05250
X2.55880Y1.15250
X2.55880Y1.25250
X2.55880Y1.35250
X2.84620Y0.75250
X2.84620Y0.85250
X2.84620Y0.95250
X2.84620Y1.05250
X2.84620Y1.15250
X2.84620Y1.25250
X2.84620Y1.35250
X3.15880Y0.75250
X3.15880Y0.85250
X3.15880Y0.95250
X3.15880Y1.05250
X3.15880Y1.15250
X3.15880Y1.25250
X3.15880Y1.35250
X3.44620Y0.75250
X3.44620Y0.85250
X3.44620Y0.95250
X3.44620Y1.05250
X3.44620Y1.15250
X3.44620Y1.25250
X3.44620Y1.35250
X3.75880Y0.75250
X3.75880Y0.85250
X3.75880Y0.95250
X3.75880Y1.05250
X3.75880Y1.15250
X3.75880Y1.25250
X3.75880Y1.35250
X4.04620Y0.75250
X4.04620Y0.85250
X4.04620Y0.95250
X4.04620Y1.05250
X4.04620Y1.15250
X4.04620Y1.25250
X4.04620Y1.35250
X4.35880Y0.75250
X4.35880Y0.85250
X4.35880Y0.95250
X4.35880Y1.05250
X4.35880Y1.15250
X4.35880Y1.25250
X4.35880Y1.35250
X4.64620Y0.75250
X4.64620Y0.85250
X4.64620Y0.95250
X4.64620Y1.05250
X4.64620Y1.15250
X4.64620Y1.25250
X4.64620Y1.35250
X4.95880Y0.75250
X4.95880Y0.85250
X4.95880Y0.95250
X4.95880Y1.05250
X4.95880Y1.15250
X4.95880Y1.25250
X4.95880Y1.35250
X5.29620Y1.60250
X5.29620Y1.70250
X5.29620Y1.80250
X5.29620Y1.90250
X5.29620Y2.00250
X5.29620Y2.10250
X5.29620Y2.20250
X5.60880Y1.60250
X5.60880Y1.70250
X5.60880Y1.80250
X5.60880Y1.90250
X5.60880Y2.00250
X5.60880Y2.10250
X5.60880Y2.20250
T003
X0.40250Y0.25250
X0.40250Y0.35250
X0.70250Y0.25250
X0.70250Y0.35250
X1.00250Y0.25250
X1.00250Y0.35250
X1.30250Y0.25250
X1.30250Y0.35250
X1.60250Y0.25250
X1.60250Y0.35250
X1.90250Y0.25250
X1.90250Y0.35250
X2.20250Y0.25250
X2.20250Y0.35250
X2.50250Y0.25250
X2.50250Y0.35250
X2.80250Y0.25250
X2.80250Y0.35250
X3.10250Y0.25250
X3.10250Y0.35250
X3.40250Y0.25250
X3.40250Y0.35250
X3.70250Y0.25250
X3.70250Y0.35250
X4.00250Y0.25250
X4.00250Y0.35250
X4.30250Y0.25250
X4.30250Y0.35250
X4.60250Y0.25250
X4.60250Y0.35250
X4.90250Y0.25250
X4.90250Y0.35250
T004
X0.30250Y0.65250
X0.30250Y0.85250
X0.30250Y1.60250
X0.30250Y1.80250
X0.30250Y2.00250
X0.30250Y2.20250
X0.55250Y0.45250
X0.55250Y0.55250
X0.85250Y0.45250
X0.85250Y0.55250
X1.15250Y0.45250
X1.15250Y0.55250
X1.45250Y0.45250
X1.45250Y0.55250
X1.75250Y0.45250
X1.75250Y0.55250
X2.05250Y0.45250
X2.05250Y0.55250
X2.35250Y0.45250
X2.35250Y0.55250
X2.65250Y0.45250
X2.65250Y0.55250
X2.95250Y0.45250
X2.95250Y0.55250
X3.25250Y0.45250
X3.25250Y0.55250
X3.55250Y0.45250
X3.55250Y0.55250
X3.85250Y0.45250
X3.85250Y0.55250
X4.15250Y0.45250
X4.15250Y0.55250
X4.45250Y0.45250
X4.45250Y0.55250
X4.75250Y0.45250
X4.75250Y0.55250
X5.05250Y0.45250
X5.05250Y0.55250
T005
X0.20250Y0.20250
X0.20250Y2.40250
X5.55250Y0.20250
X5.55250Y2.40250
M30
