G04 EasyPC Gerber Version 21.0.3 Build 4286 *
G04 #@! TF.Part,Single*
G04 #@! TF.FileFunction,Copper,L1,Top *
G04 #@! TF.FilePolarity,Positive *
%FSLAX35Y35*%
%MOIN*%
G04 #@! TA.AperFunction,ComponentPad*
%ADD15R,0.05118X0.05118*%
%ADD18R,0.06496X0.06496*%
G04 #@! TD.AperFunction*
%ADD12C,0.00500*%
%ADD19C,0.01500*%
G04 #@! TA.AperFunction,ComponentPad*
%ADD16C,0.05118*%
G04 #@! TA.AperFunction,WasherPad*
%ADD13C,0.06000*%
G04 #@! TA.AperFunction,ComponentPad*
%ADD17C,0.06496*%
G04 #@! TA.AperFunction,WasherPad*
%ADD14C,0.17500*%
X0Y0D02*
D02*
D12*
X250Y250D02*
X225250D01*
Y260250*
X250*
Y250*
D02*
D13*
X15250Y90250D03*
Y110250D03*
Y130250D03*
X50250Y35250D03*
X60250Y15250D03*
Y225250D03*
Y245250D03*
X80250Y30250D03*
Y225250D03*
Y245250D03*
X100250Y30250D03*
Y225250D03*
Y245250D03*
X125250Y225250D03*
Y245250D03*
X145250Y225250D03*
Y245250D03*
X165250Y225250D03*
Y245250D03*
X185250Y225250D03*
Y245250D03*
X210250Y90250D03*
Y110250D03*
D02*
D14*
X20250Y20250D03*
Y235250D03*
X205250Y20250D03*
Y235250D03*
D02*
D15*
X40250Y110250D03*
Y170250D03*
X125250D03*
X155250Y140250D03*
D02*
D16*
X40250D03*
Y200250D03*
X70250Y110250D03*
Y140250D03*
Y170250D03*
Y200250D03*
X90250Y110250D03*
Y140250D03*
Y170250D03*
Y200250D03*
X110250Y110250D03*
Y140250D03*
Y170250D03*
Y200250D03*
X125250D03*
X155250Y70250D03*
Y90250D03*
Y110250D03*
Y170250D03*
Y200250D03*
X175250Y170250D03*
Y200250D03*
X185250Y70250D03*
Y90250D03*
Y110250D03*
Y140250D03*
X195250Y170250D03*
Y200250D03*
D02*
D17*
X39581Y50250D03*
X79581D03*
Y80250D03*
X109581Y50250D03*
Y80250D03*
D02*
D18*
X39581D03*
D02*
D19*
Y50250D02*
Y45919D01*
X50250Y35250*
X40250Y140250D02*
Y135250D01*
X50250Y125250*
X40250Y200250D02*
X50250Y190250D01*
Y125250*
Y35250D02*
Y25250D01*
X60250Y15250*
X50250Y125250D02*
Y35250D01*
X60250Y245250D02*
Y225250D01*
X70250Y200250D02*
Y180250D01*
X90250Y160250*
Y140250*
X79581Y50250D02*
Y30919D01*
X80250Y30250*
X79581Y80250D02*
Y50250D01*
X80250Y30250D02*
X100250D01*
X80250Y225250D02*
Y180250D01*
X90250Y170250*
X80250Y245250D02*
Y225250D01*
X100250D02*
Y180250D01*
X110250Y170250*
X100250Y245250D02*
Y225250D01*
X109581Y80250D02*
X175250D01*
X185250Y70250*
X125250Y200250D02*
Y185250D01*
X170250Y140250*
X185250*
X125250Y245250D02*
Y225250D01*
X145250Y245250D02*
Y225250D01*
X165250D02*
Y180250D01*
X175250Y170250*
X165250Y245250D02*
Y225250D01*
X185250Y140250D02*
X195250Y130250D01*
Y60250*
X150250Y15250*
X60250*
X185250Y225250D02*
Y180250D01*
X195250Y170250*
X185250Y245250D02*
Y225250D01*
X0Y0D02*
M02*
