G04 EasyPC Gerber Version 21.0.3 Build 4286 *
G04 #@! TF.Part,Single*
G04 #@! TF.FileFunction,Copper,L2,Bot *
G04 #@! TF.FilePolarity,Positive *
%FSLAX35Y35*%
%MOIN*%
G04 #@! TA.AperFunction,ComponentPad*
%ADD15R,0.05118X0.05118*%
%ADD18R,0.06496X0.06496*%
G04 #@! TD.AperFunction*
%ADD19C,0.01500*%
G04 #@! TA.AperFunction,ComponentPad*
%ADD16C,0.05118*%
G04 #@! TA.AperFunction,WasherPad*
%ADD13C,0.06000*%
G04 #@! TA.AperFunction,ComponentPad*
%ADD17C,0.06496*%
G04 #@! TA.AperFunction,WasherPad*
%ADD14C,0.17500*%
X0Y0D02*
D02*
D13*
X15250Y90250D03*
Y110250D03*
Y130250D03*
X50250Y35250D03*
X60250Y15250D03*
Y225250D03*
Y245250D03*
X80250Y30250D03*
Y225250D03*
Y245250D03*
X100250Y30250D03*
Y225250D03*
Y245250D03*
X125250Y225250D03*
Y245250D03*
X145250Y225250D03*
Y245250D03*
X165250Y225250D03*
Y245250D03*
X185250Y225250D03*
Y245250D03*
X210250Y90250D03*
Y110250D03*
D02*
D14*
X20250Y20250D03*
Y235250D03*
X205250Y20250D03*
Y235250D03*
D02*
D15*
X40250Y110250D03*
Y170250D03*
X125250D03*
X155250Y140250D03*
D02*
D16*
X40250D03*
Y200250D03*
X70250Y110250D03*
Y140250D03*
Y170250D03*
Y200250D03*
X90250Y110250D03*
Y140250D03*
Y170250D03*
Y200250D03*
X110250Y110250D03*
Y140250D03*
Y170250D03*
Y200250D03*
X125250D03*
X155250Y70250D03*
Y90250D03*
Y110250D03*
Y170250D03*
Y200250D03*
X175250Y170250D03*
Y200250D03*
X185250Y70250D03*
Y90250D03*
Y110250D03*
Y140250D03*
X195250Y170250D03*
Y200250D03*
D02*
D17*
X39581Y50250D03*
X79581D03*
Y80250D03*
X109581Y50250D03*
Y80250D03*
D02*
D18*
X39581D03*
D02*
D19*
X15250Y90250D02*
X29581D01*
X39581Y80250*
X15250Y130250D02*
Y145250D01*
X40250Y170250*
X39581Y80250D02*
X65250D01*
X75250Y90250*
X135250*
X155250Y70250*
X40250Y110250D02*
X15250D01*
X40250Y170250D02*
X50250Y180250D01*
X115250*
X125250Y170250*
X70250Y110250D02*
X80250Y100250D01*
X115250*
X155250Y140250*
X70250Y170250D02*
X80250Y160250D01*
Y130250*
X85250Y125250*
X95250*
X110250Y140250*
X75250Y95250D02*
X150250D01*
X155250Y90250*
X75250Y95250D02*
X60250Y110250D01*
Y130250*
X70250Y140250*
X90250Y110250D02*
X145250Y165250D01*
Y190250*
X155250Y200250*
X109581Y50250D02*
X145250D01*
X185250Y90250*
X110250Y200250D02*
Y210250D01*
X105250Y215250*
X65250*
X60250Y220250*
Y225250*
X125250D02*
Y215250D01*
X130250Y210250*
X170250*
X175250Y205250*
Y200250*
X145250Y225250D02*
Y220250D01*
X150250Y215250*
X190250*
X195250Y210250*
Y200250*
X155250Y110250D02*
X165250Y100250D01*
X200250*
X210250Y90250*
X155250Y170250D02*
Y155250D01*
X110250Y110250*
X185250D02*
X210250D01*
X0Y0D02*
M02*
