G04 EasyPC Gerber Version 21.0.3 Build 4286 *
G04 #@! TF.Part,Single*
G04 #@! TF.FileFunction,Other,4-Bit Relay ALU - Top Documentation *
G04 #@! TF.FilePolarity,Positive *
%FSLAX35Y35*%
%MOIN*%
%ADD25C,0.00100*%
X0Y0D02*
D02*
D25*
X40250Y222125D02*
Y229625D01*
X44625*
X45875Y229000*
X46500Y227750*
X45875Y226500*
X44625Y225875*
X40250*
X50250Y224000D02*
X50875Y222750D01*
X52125Y222125*
X54625*
X55875Y222750*
X56500Y224000*
X55875Y225250*
X54625Y225875*
X52125*
X50875Y226500*
X50250Y227750*
X50875Y229000*
X52125Y229625*
X54625*
X55875Y229000*
X56500Y227750*
X60875Y222750D02*
X62125Y222125D01*
X63375*
X64625Y222750*
X65250Y224000*
X64625Y225250*
X63375Y225875*
X62125*
X63375D02*
X64625Y226500D01*
X65250Y227750*
X64625Y229000*
X63375Y229625*
X62125*
X60875Y229000*
X40250Y237125D02*
Y244625D01*
X44625*
X45875Y244000*
X46500Y242750*
X45875Y241500*
X44625Y240875*
X40250*
X50250Y239000D02*
X50875Y237750D01*
X52125Y237125*
X54625*
X55875Y237750*
X56500Y239000*
X55875Y240250*
X54625Y240875*
X52125*
X50875Y241500*
X50250Y242750*
X50875Y244000*
X52125Y244625*
X54625*
X55875Y244000*
X56500Y242750*
X65250Y237125D02*
X60250D01*
X64625Y241500*
X65250Y242750*
X64625Y244000*
X63375Y244625*
X61500*
X60250Y244000*
X40250Y252125D02*
Y259625D01*
X44625*
X45875Y259000*
X46500Y257750*
X45875Y256500*
X44625Y255875*
X40250*
X50250Y254000D02*
X50875Y252750D01*
X52125Y252125*
X54625*
X55875Y252750*
X56500Y254000*
X55875Y255250*
X54625Y255875*
X52125*
X50875Y256500*
X50250Y257750*
X50875Y259000*
X52125Y259625*
X54625*
X55875Y259000*
X56500Y257750*
X61500Y252125D02*
X64000D01*
X62750D02*
Y259625D01*
X61500Y258375*
X40250Y267125D02*
Y274625D01*
X44625*
X45875Y274000*
X46500Y272750*
X45875Y271500*
X44625Y270875*
X40250*
X50250Y269000D02*
X50875Y267750D01*
X52125Y267125*
X54625*
X55875Y267750*
X56500Y269000*
X55875Y270250*
X54625Y270875*
X52125*
X50875Y271500*
X50250Y272750*
X50875Y274000*
X52125Y274625*
X54625*
X55875Y274000*
X56500Y272750*
X60875Y267750D02*
X62125Y267125D01*
X63375*
X64625Y267750*
X65250Y269000*
Y272750*
X64625Y274000*
X63375Y274625*
X62125*
X60875Y274000*
X60250Y272750*
Y269000*
X60875Y267750*
X64625Y274000*
X44625Y285250D02*
X46500D01*
Y284625*
X45875Y283375*
X45250Y282750*
X44000Y282125*
X42750*
X41500Y282750*
X40875Y283375*
X40250Y284625*
Y287125*
X40875Y288375*
X41500Y289000*
X42750Y289625*
X44000*
X45250Y289000*
X45875Y288375*
X46500Y287125*
X50250Y284000D02*
X50875Y282750D01*
X52125Y282125*
X54625*
X55875Y282750*
X56500Y284000*
X55875Y285250*
X54625Y285875*
X52125*
X50875Y286500*
X50250Y287750*
X50875Y289000*
X52125Y289625*
X54625*
X55875Y289000*
X56500Y287750*
X60875Y282750D02*
X62125Y282125D01*
X63375*
X64625Y282750*
X65250Y284000*
X64625Y285250*
X63375Y285875*
X62125*
X63375D02*
X64625Y286500D01*
X65250Y287750*
X64625Y289000*
X63375Y289625*
X62125*
X60875Y289000*
X44625Y300250D02*
X46500D01*
Y299625*
X45875Y298375*
X45250Y297750*
X44000Y297125*
X42750*
X41500Y297750*
X40875Y298375*
X40250Y299625*
Y302125*
X40875Y303375*
X41500Y304000*
X42750Y304625*
X44000*
X45250Y304000*
X45875Y303375*
X46500Y302125*
X50250Y299000D02*
X50875Y297750D01*
X52125Y297125*
X54625*
X55875Y297750*
X56500Y299000*
X55875Y300250*
X54625Y300875*
X52125*
X50875Y301500*
X50250Y302750*
X50875Y304000*
X52125Y304625*
X54625*
X55875Y304000*
X56500Y302750*
X65250Y297125D02*
X60250D01*
X64625Y301500*
X65250Y302750*
X64625Y304000*
X63375Y304625*
X61500*
X60250Y304000*
X44625Y315250D02*
X46500D01*
Y314625*
X45875Y313375*
X45250Y312750*
X44000Y312125*
X42750*
X41500Y312750*
X40875Y313375*
X40250Y314625*
Y317125*
X40875Y318375*
X41500Y319000*
X42750Y319625*
X44000*
X45250Y319000*
X45875Y318375*
X46500Y317125*
X50250Y314000D02*
X50875Y312750D01*
X52125Y312125*
X54625*
X55875Y312750*
X56500Y314000*
X55875Y315250*
X54625Y315875*
X52125*
X50875Y316500*
X50250Y317750*
X50875Y319000*
X52125Y319625*
X54625*
X55875Y319000*
X56500Y317750*
X61500Y312125D02*
X64000D01*
X62750D02*
Y319625D01*
X61500Y318375*
X698375Y322125D02*
Y329625D01*
X695250Y324625*
X700250*
X719625Y325875D02*
X720875Y325250D01*
X721500Y324000*
X720875Y322750*
X719625Y322125*
X715250*
Y329625*
X719625*
X720875Y329000*
X721500Y327750*
X720875Y326500*
X719625Y325875*
X715250*
X727750Y322125D02*
Y327125D01*
Y329000D02*
X736500Y327125*
X739000D01*
X737750Y328375D02*
Y322750D01*
X738375Y322125*
X739000*
X739625Y322750*
X755250Y322125D02*
Y329625D01*
X759625*
X760875Y329000*
X761500Y327750*
X760875Y326500*
X759625Y325875*
X755250*
X759625D02*
X761500Y322125D01*
X770250Y322750D02*
X769625Y322125D01*
X768375*
X767125*
X765875Y322750*
X765250Y324000*
Y325875*
X765875Y326500*
X767125Y327125*
X768375*
X769625Y326500*
X770250Y325875*
Y325250*
X769625Y324625*
X768375Y324000*
X767125*
X765875Y324625*
X765250Y325250*
X778375Y322125D02*
X777750D01*
Y329625*
X785250Y326500D02*
X786500Y327125D01*
X788375*
X789625Y326500*
X790250Y325250*
Y323375*
X789625Y322750*
X788375Y322125*
X787125*
X785875Y322750*
X785250Y323375*
Y324000*
X785875Y324625*
X787125Y325250*
X788375*
X789625Y324625*
X790250Y324000*
Y323375D02*
Y322125D01*
X795250Y327125D02*
X795875Y324625D01*
X797125Y323375*
X798375*
X799625Y324625*
X800250Y327125*
X799625Y324625D02*
X799000Y322125D01*
X798375Y320875*
X797125Y320250*
X795875Y320875*
X815250Y322125D02*
X818375Y329625D01*
X821500Y322125*
X816500Y325250D02*
X820250D01*
X825250Y329625D02*
Y322125D01*
X831500*
X835250Y329625D02*
Y324000D01*
X835875Y322750*
X837125Y322125*
X839625*
X840875Y322750*
X841500Y324000*
Y329625*
X0Y0D02*
M02*
