G04 EasyPC Gerber Version 21.0.3 Build 4286 *
G04 #@! TF.Part,Single*
G04 #@! TF.FileFunction,Copper,L2,Bot *
G04 #@! TF.FilePolarity,Positive *
%FSLAX35Y35*%
%MOIN*%
G04 #@! TA.AperFunction,ComponentPad*
%ADD15R,0.05118X0.05118*%
%ADD18R,0.06496X0.06496*%
G04 #@! TD.AperFunction*
%ADD19C,0.01500*%
G04 #@! TA.AperFunction,ViaPad*
%ADD26C,0.04800*%
G04 #@! TA.AperFunction,ComponentPad*
%ADD16C,0.05118*%
G04 #@! TA.AperFunction,WasherPad*
%ADD13C,0.06000*%
G04 #@! TA.AperFunction,ComponentPad*
%ADD17C,0.06496*%
G04 #@! TA.AperFunction,WasherPad*
%ADD14C,0.17500*%
X0Y0D02*
D02*
D13*
X25250Y95250D03*
Y115250D03*
Y135250D03*
X50250Y35250D03*
X60250Y20250D03*
X75250Y225250D03*
Y240250D03*
Y255250D03*
Y270250D03*
Y285250D03*
Y300250D03*
Y315250D03*
X90250Y215250D03*
X110250D03*
X220250Y95250D03*
X240250Y115250D03*
Y135250D03*
X305250Y215250D03*
X325250D03*
X435250Y95250D03*
X455250Y115250D03*
Y135250D03*
X520250Y215250D03*
X540250D03*
X650250Y95250D03*
X670250Y115250D03*
Y135250D03*
X735250Y35250D03*
Y215250D03*
X755250D03*
X865250Y95250D03*
Y115250D03*
D02*
D14*
X20250Y20250D03*
Y315250D03*
X860250Y20250D03*
Y315250D03*
D02*
D15*
X50250Y115250D03*
Y175250D03*
X135250D03*
X165250Y145250D03*
X265250Y115250D03*
Y175250D03*
X350250D03*
X380250Y145250D03*
X480250Y115250D03*
Y175250D03*
X565250D03*
X595250Y145250D03*
X695250Y115250D03*
Y175250D03*
X780250D03*
X810250Y145250D03*
D02*
D16*
X50250D03*
Y205250D03*
X80250Y115250D03*
Y145250D03*
Y175250D03*
Y205250D03*
X100250Y115250D03*
Y145250D03*
Y175250D03*
Y205250D03*
X120250Y115250D03*
Y145250D03*
Y175250D03*
Y205250D03*
X135250D03*
X165250Y75250D03*
Y95250D03*
Y115250D03*
Y175250D03*
Y205250D03*
X185250Y175250D03*
Y205250D03*
X195250Y75250D03*
Y95250D03*
Y115250D03*
Y145250D03*
X205250Y175250D03*
Y205250D03*
X265250Y145250D03*
Y205250D03*
X295250Y115250D03*
Y145250D03*
Y175250D03*
Y205250D03*
X315250Y115250D03*
Y145250D03*
Y175250D03*
Y205250D03*
X335250Y115250D03*
Y145250D03*
Y175250D03*
Y205250D03*
X350250D03*
X380250Y75250D03*
Y95250D03*
Y115250D03*
Y175250D03*
Y205250D03*
X400250Y175250D03*
Y205250D03*
X410250Y75250D03*
Y95250D03*
Y115250D03*
Y145250D03*
X420250Y175250D03*
Y205250D03*
X480250Y145250D03*
Y205250D03*
X510250Y115250D03*
Y145250D03*
Y175250D03*
Y205250D03*
X530250Y115250D03*
Y145250D03*
Y175250D03*
Y205250D03*
X550250Y115250D03*
Y145250D03*
Y175250D03*
Y205250D03*
X565250D03*
X595250Y75250D03*
Y95250D03*
Y115250D03*
Y175250D03*
Y205250D03*
X615250Y175250D03*
Y205250D03*
X625250Y75250D03*
Y95250D03*
Y115250D03*
Y145250D03*
X635250Y175250D03*
Y205250D03*
X695250Y145250D03*
Y205250D03*
X725250Y115250D03*
Y145250D03*
Y175250D03*
Y205250D03*
X745250Y115250D03*
Y145250D03*
Y175250D03*
Y205250D03*
X765250Y115250D03*
Y145250D03*
Y175250D03*
Y205250D03*
X780250D03*
X810250Y75250D03*
Y95250D03*
Y115250D03*
Y175250D03*
Y205250D03*
X830250Y175250D03*
Y205250D03*
X840250Y75250D03*
Y95250D03*
Y115250D03*
Y145250D03*
X850250Y175250D03*
Y205250D03*
D02*
D17*
X49581Y55250D03*
X89581D03*
Y85250D03*
X119581Y55250D03*
Y85250D03*
X264581Y55250D03*
X304581D03*
Y85250D03*
X334581Y55250D03*
Y85250D03*
X479581Y55250D03*
X519581D03*
Y85250D03*
X549581Y55250D03*
Y85250D03*
X694581Y55250D03*
X734581D03*
Y85250D03*
X764581Y55250D03*
Y85250D03*
D02*
D18*
X49581D03*
X264581D03*
X479581D03*
X694581D03*
D02*
D19*
X25250Y95250D02*
X39581D01*
X49581Y85250*
X25250Y135250D02*
Y150250D01*
X50250Y175250*
X49581Y85250D02*
X75250D01*
X85250Y95250*
X145250*
X165250Y75250*
X50250Y115250D02*
X25250D01*
X50250Y175250D02*
X60250Y185250D01*
X125250*
X135250Y175250*
X80250Y115250D02*
X90250Y105250D01*
X125250*
X165250Y145250*
X80250Y175250D02*
X90250Y165250D01*
Y135250*
X95250Y130250*
X105250*
X120250Y145250*
X85250Y100250D02*
X160250D01*
X165250Y95250*
X85250Y100250D02*
X70250Y115250D01*
Y135250*
X80250Y145250*
X89581Y35250D02*
X50250D01*
X89581Y55250D02*
Y35250D01*
Y85250D02*
Y55250D01*
X90250Y215250D02*
Y300250D01*
X100250Y115250D02*
X155250Y170250D01*
Y195250*
X165250Y205250*
X110250Y215250D02*
Y285250D01*
X119581Y55250D02*
X155250D01*
X195250Y95250*
X120250Y205250D02*
Y315250D01*
X165250Y115250D02*
X175250Y105250D01*
X210250*
X220250Y95250*
X165250Y175250D02*
Y160250D01*
X120250Y115250*
X185250Y175250D02*
X175250Y185250D01*
Y240250*
X185250Y205250D02*
Y270250D01*
X195250Y115250D02*
X210250D01*
X240250Y85250*
X264581*
X195250Y225250D02*
Y185250D01*
X205250Y175250*
Y205250D02*
Y255250D01*
X240250Y135250D02*
Y150250D01*
X265250Y175250*
X264581Y85250D02*
X290250D01*
X300250Y95250*
X360250*
X380250Y75250*
X265250Y115250D02*
X240250D01*
X265250Y175250D02*
X275250Y185250D01*
X340250*
X350250Y175250*
X295250Y115250D02*
X305250Y105250D01*
X340250*
X380250Y145250*
X295250Y175250D02*
X305250Y165250D01*
Y135250*
X310250Y130250*
X320250*
X335250Y145250*
X300250Y100250D02*
X375250D01*
X380250Y95250*
X300250Y100250D02*
X285250Y115250D01*
Y135250*
X295250Y145250*
X304581Y35250D02*
X89581D01*
X304581D02*
X519581D01*
X304581Y55250D02*
Y35250D01*
Y85250D02*
Y55250D01*
X305250Y215250D02*
Y300250D01*
X315250Y115250D02*
X370250Y170250D01*
Y195250*
X380250Y205250*
X325250Y215250D02*
Y285250D01*
X334581Y55250D02*
X370250D01*
X410250Y95250*
X335250Y205250D02*
Y315250D01*
X380250Y115250D02*
X390250Y105250D01*
X425250*
X435250Y95250*
X380250Y175250D02*
Y160250D01*
X335250Y115250*
X400250Y175250D02*
X390250Y185250D01*
Y240250*
X400250Y205250D02*
Y270250D01*
X420250Y175250D02*
X410250Y185250D01*
Y225250*
X420250Y205250D02*
Y255250D01*
X455250Y135250D02*
Y150250D01*
X480250Y175250*
X479581Y85250D02*
X455250D01*
X425250Y115250*
X410250*
X479581Y85250D02*
X505250D01*
X515250Y95250*
X575250*
X595250Y75250*
X480250Y115250D02*
X455250D01*
X480250Y175250D02*
X490250Y185250D01*
X555250*
X565250Y175250*
X510250Y115250D02*
X520250Y105250D01*
X555250*
X595250Y145250*
X510250Y175250D02*
X520250Y165250D01*
Y135250*
X525250Y130250*
X535250*
X550250Y145250*
X515250Y100250D02*
X590250D01*
X595250Y95250*
X515250Y100250D02*
X500250Y115250D01*
Y135250*
X510250Y145250*
X519581Y35250D02*
X735250D01*
X519581Y55250D02*
Y35250D01*
Y85250D02*
Y55250D01*
X520250Y215250D02*
Y300250D01*
X530250Y115250D02*
X585250Y170250D01*
Y195250*
X595250Y205250*
X540250Y215250D02*
Y285250D01*
X549581Y55250D02*
X585250D01*
X625250Y95250*
X550250Y205250D02*
Y315250D01*
X595250Y115250D02*
X605250Y105250D01*
X640250*
X650250Y95250*
X595250Y175250D02*
Y160250D01*
X550250Y115250*
X615250Y175250D02*
X605250Y185250D01*
Y240250*
X615250Y205250D02*
Y270250D01*
X625250Y115250D02*
X640250D01*
X670250Y85250*
X694581*
X635250Y175250D02*
X625250Y185250D01*
Y225250*
X635250Y205250D02*
Y255250D01*
X670250Y135250D02*
Y150250D01*
X695250Y175250*
X694581Y85250D02*
X720250D01*
X730250Y95250*
X790250*
X810250Y75250*
X695250Y115250D02*
X670250D01*
X695250Y175250D02*
X705250Y185250D01*
X770250*
X780250Y175250*
X725250Y115250D02*
X735250Y105250D01*
X770250*
X810250Y145250*
X725250Y175250D02*
X735250Y165250D01*
Y135250*
X740250Y130250*
X750250*
X765250Y145250*
X730250Y100250D02*
X805250D01*
X810250Y95250*
X730250Y100250D02*
X715250Y115250D01*
Y135250*
X725250Y145250*
X734581Y55250D02*
Y35919D01*
X735250Y35250*
X734581Y85250D02*
Y55250D01*
X735250Y215250D02*
Y300250D01*
X745250Y115250D02*
X800250Y170250D01*
Y195250*
X810250Y205250*
X755250Y215250D02*
Y285250D01*
X764581Y55250D02*
X800250D01*
X840250Y95250*
X765250Y205250D02*
Y315250D01*
X810250Y115250D02*
X820250Y105250D01*
X855250*
X865250Y95250*
X810250Y175250D02*
Y160250D01*
X765250Y115250*
X830250Y175250D02*
X820250Y185250D01*
Y240250*
X830250Y205250D02*
Y270250D01*
X840250Y115250D02*
X865250D01*
X850250Y175250D02*
X840250Y185250D01*
Y225250*
X850250Y205250D02*
Y255250D01*
D02*
D26*
X90250Y300250D03*
X110250Y285250D03*
X120250Y315250D03*
X175250Y240250D03*
X185250Y270250D03*
X195250Y225250D03*
X205250Y255250D03*
X305250Y300250D03*
X325250Y285250D03*
X335250Y315250D03*
X390250Y240250D03*
X400250Y270250D03*
X410250Y225250D03*
X420250Y255250D03*
X520250Y300250D03*
X540250Y285250D03*
X550250Y315250D03*
X605250Y240250D03*
X615250Y270250D03*
X625250Y225250D03*
X635250Y255250D03*
X735250Y300250D03*
X755250Y285250D03*
X765250Y315250D03*
X820250Y240250D03*
X830250Y270250D03*
X840250Y225250D03*
X850250Y255250D03*
X0Y0D02*
M02*
