G04 EasyPC Gerber Version 21.0.3 Build 4286 *
G04 #@! TF.Part,Single*
G04 #@! TF.FileFunction,Legend,Top *
G04 #@! TF.FilePolarity,Positive *
%FSLAX35Y35*%
%MOIN*%
%ADD12C,0.00500*%
%ADD11C,0.00787*%
%ADD10C,0.01000*%
X0Y0D02*
D02*
D10*
X20250Y44625D02*
X23375Y37125D01*
X26500Y44625*
X35250Y41500D02*
X34000Y42125D01*
X32125*
X30875Y41500*
X30250Y40250*
Y39000*
X30875Y37750*
X32125Y37125*
X34000*
X35250Y37750*
X45250Y41500D02*
X44000Y42125D01*
X42125*
X40875Y41500*
X40250Y40250*
Y39000*
X40875Y37750*
X42125Y37125*
X44000*
X45250Y37750*
X34625Y25250D02*
X36500D01*
Y24625*
X35875Y23375*
X35250Y22750*
X34000Y22125*
X32750*
X31500Y22750*
X30875Y23375*
X30250Y24625*
Y27125*
X30875Y28375*
X31500Y29000*
X32750Y29625*
X34000*
X35250Y29000*
X35875Y28375*
X36500Y27125*
X40250Y22125D02*
Y27125D01*
Y25250D02*
X40875Y26500D01*
X42125Y27125*
X43375*
X44625Y26500*
X45250Y25250*
Y22125*
X55250Y25250D02*
X54625Y26500D01*
X53375Y27125*
X52125*
X50875Y26500*
X50250Y25250*
Y24000*
X50875Y22750*
X52125Y22125*
X53375*
X54625Y22750*
X55250Y24000*
Y22125D02*
Y29625D01*
X36500Y83675D02*
X35875Y83050D01*
X34625Y82425*
X32750*
X31500Y83050*
X30875Y83675*
X30250Y84925*
Y87425*
X30875Y88675*
X31500Y89300*
X32750Y89925*
X34625*
X35875Y89300*
X36500Y88675*
X34625Y105875D02*
X35875Y105250D01*
X36500Y104000*
X35875Y102750*
X34625Y102125*
X30250*
Y109625*
X34625*
X35875Y109000*
X36500Y107750*
X35875Y106500*
X34625Y105875*
X30250*
Y127125D02*
X33375Y134625D01*
X36500Y127125*
X31500Y130250D02*
X35250D01*
X38750Y81875D02*
Y84875D01*
Y86000D02*
X43022Y55506*
G75*
G02X42281I-370D01*
G01*
X43022D02*
G75*
G02X42281I-370D01*
G01*
G75*
G02X43022I370*
G01*
X45250Y48596D02*
Y91904D01*
X123990*
Y48596*
X45250*
X210250Y84625D02*
Y87125D01*
X210875Y88375*
X211500Y89000*
X212750Y89625*
X214000*
X215250Y89000*
X215875Y88375*
X216500Y87125*
Y84625*
X215875Y83375*
X215250Y82750*
X214000Y82125*
X212750*
X211500Y82750*
X210875Y83375*
X210250Y84625*
X214625Y84000D02*
X216500Y82125D01*
Y123375D02*
X215875Y122750D01*
X214625Y122125*
X212750*
X211500Y122750*
X210875Y123375*
X210250Y124625*
Y127125*
X210875Y128375*
X211500Y129000*
X212750Y129625*
X214625*
X215875Y129000*
X216500Y128375*
X218250Y122500D02*
X218625Y121750D01*
X219375Y121375*
X220125*
X220875Y121750*
X221250Y122500*
Y123250*
X220875Y124000*
X220125Y124375*
X219375*
X218625Y124000*
X218250Y123250*
Y122500*
X251500Y83675D02*
X250875Y83050D01*
X249625Y82425*
X247750*
X246500Y83050*
X245875Y83675*
X245250Y84925*
Y87425*
X245875Y88675*
X246500Y89300*
X247750Y89925*
X249625*
X250875Y89300*
X251500Y88675*
X249625Y105875D02*
X250875Y105250D01*
X251500Y104000*
X250875Y102750*
X249625Y102125*
X245250*
Y109625*
X249625*
X250875Y109000*
X251500Y107750*
X250875Y106500*
X249625Y105875*
X245250*
Y127125D02*
X248375Y134625D01*
X251500Y127125*
X246500Y130250D02*
X250250D01*
X253750Y81875D02*
Y84875D01*
Y86000D02*
X258022Y55506*
G75*
G02X257281I-370D01*
G01*
X258022D02*
G75*
G02X257281I-370D01*
G01*
G75*
G02X258022I370*
G01*
X260250Y48596D02*
Y91904D01*
X338990*
Y48596*
X260250*
X425250Y84625D02*
Y87125D01*
X425875Y88375*
X426500Y89000*
X427750Y89625*
X429000*
X430250Y89000*
X430875Y88375*
X431500Y87125*
Y84625*
X430875Y83375*
X430250Y82750*
X429000Y82125*
X427750*
X426500Y82750*
X425875Y83375*
X425250Y84625*
X429625Y84000D02*
X431500Y82125D01*
Y123375D02*
X430875Y122750D01*
X429625Y122125*
X427750*
X426500Y122750*
X425875Y123375*
X425250Y124625*
Y127125*
X425875Y128375*
X426500Y129000*
X427750Y129625*
X429625*
X430875Y129000*
X431500Y128375*
X433250Y122500D02*
X433625Y121750D01*
X434375Y121375*
X435125*
X435875Y121750*
X436250Y122500*
Y123250*
X435875Y124000*
X435125Y124375*
X434375*
X433625Y124000*
X433250Y123250*
Y122500*
X466500Y83675D02*
X465875Y83050D01*
X464625Y82425*
X462750*
X461500Y83050*
X460875Y83675*
X460250Y84925*
Y87425*
X460875Y88675*
X461500Y89300*
X462750Y89925*
X464625*
X465875Y89300*
X466500Y88675*
X464625Y105875D02*
X465875Y105250D01*
X466500Y104000*
X465875Y102750*
X464625Y102125*
X460250*
Y109625*
X464625*
X465875Y109000*
X466500Y107750*
X465875Y106500*
X464625Y105875*
X460250*
Y127125D02*
X463375Y134625D01*
X466500Y127125*
X461500Y130250D02*
X465250D01*
X468750Y81875D02*
Y84875D01*
Y86000D02*
X473022Y55506*
G75*
G02X472281I-370D01*
G01*
X473022D02*
G75*
G02X472281I-370D01*
G01*
G75*
G02X473022I370*
G01*
X475250Y48596D02*
Y91904D01*
X553990*
Y48596*
X475250*
X640250Y84625D02*
Y87125D01*
X640875Y88375*
X641500Y89000*
X642750Y89625*
X644000*
X645250Y89000*
X645875Y88375*
X646500Y87125*
Y84625*
X645875Y83375*
X645250Y82750*
X644000Y82125*
X642750*
X641500Y82750*
X640875Y83375*
X640250Y84625*
X644625Y84000D02*
X646500Y82125D01*
Y123375D02*
X645875Y122750D01*
X644625Y122125*
X642750*
X641500Y122750*
X640875Y123375*
X640250Y124625*
Y127125*
X640875Y128375*
X641500Y129000*
X642750Y129625*
X644625*
X645875Y129000*
X646500Y128375*
X648250Y122500D02*
X648625Y121750D01*
X649375Y121375*
X650125*
X650875Y121750*
X651250Y122500*
Y123250*
X650875Y124000*
X650125Y124375*
X649375*
X648625Y124000*
X648250Y123250*
Y122500*
X681500Y83675D02*
X680875Y83050D01*
X679625Y82425*
X677750*
X676500Y83050*
X675875Y83675*
X675250Y84925*
Y87425*
X675875Y88675*
X676500Y89300*
X677750Y89925*
X679625*
X680875Y89300*
X681500Y88675*
X679625Y105875D02*
X680875Y105250D01*
X681500Y104000*
X680875Y102750*
X679625Y102125*
X675250*
Y109625*
X679625*
X680875Y109000*
X681500Y107750*
X680875Y106500*
X679625Y105875*
X675250*
Y127125D02*
X678375Y134625D01*
X681500Y127125*
X676500Y130250D02*
X680250D01*
X683750Y81875D02*
Y84875D01*
Y86000D02*
X688022Y55506*
G75*
G02X687281I-370D01*
G01*
X688022D02*
G75*
G02X687281I-370D01*
G01*
G75*
G02X688022I370*
G01*
X690250Y48596D02*
Y91904D01*
X768990*
Y48596*
X690250*
X855250Y84625D02*
Y87125D01*
X855875Y88375*
X856500Y89000*
X857750Y89625*
X859000*
X860250Y89000*
X860875Y88375*
X861500Y87125*
Y84625*
X860875Y83375*
X860250Y82750*
X859000Y82125*
X857750*
X856500Y82750*
X855875Y83375*
X855250Y84625*
X859625Y84000D02*
X861500Y82125D01*
Y123375D02*
X860875Y122750D01*
X859625Y122125*
X857750*
X856500Y122750*
X855875Y123375*
X855250Y124625*
Y127125*
X855875Y128375*
X856500Y129000*
X857750Y129625*
X859625*
X860875Y129000*
X861500Y128375*
X863250Y122500D02*
X863625Y121750D01*
X864375Y121375*
X865125*
X865875Y121750*
X866250Y122500*
Y123250*
X865875Y124000*
X865125Y124375*
X864375*
X863625Y124000*
X863250Y123250*
Y122500*
D02*
D11*
X45565Y110565D02*
Y149935D01*
X125093*
Y110565*
X45565*
Y170565D02*
Y209935D01*
X125093*
Y170565*
X45565*
X50652Y107384D02*
G75*
G02X50163I-244D01*
G01*
X50652D02*
G75*
G02X50163I-244D01*
G01*
G75*
G02X50652I244*
G01*
Y167384D02*
G75*
G02X50163I-244D01*
G01*
X50652D02*
G75*
G02X50163I-244D01*
G01*
G75*
G02X50652I244*
G01*
X130565Y170565D02*
Y209935D01*
X210093*
Y170565*
X130565*
X135652Y167384D02*
G75*
G02X135163I-244D01*
G01*
X135652D02*
G75*
G02X135163I-244D01*
G01*
G75*
G02X135652I244*
G01*
X157384Y144848D02*
G75*
G02Y145337J244D01*
G01*
Y144848D02*
G75*
G02Y145337J244D01*
G01*
G75*
G02Y144848J-244*
G01*
X160565Y149935D02*
X199935D01*
Y70407*
X160565*
Y149935*
X260565Y110565D02*
Y149935D01*
X340093*
Y110565*
X260565*
Y170565D02*
Y209935D01*
X340093*
Y170565*
X260565*
X265652Y107384D02*
G75*
G02X265163I-244D01*
G01*
X265652D02*
G75*
G02X265163I-244D01*
G01*
G75*
G02X265652I244*
G01*
Y167384D02*
G75*
G02X265163I-244D01*
G01*
X265652D02*
G75*
G02X265163I-244D01*
G01*
G75*
G02X265652I244*
G01*
X345565Y170565D02*
Y209935D01*
X425093*
Y170565*
X345565*
X350652Y167384D02*
G75*
G02X350163I-244D01*
G01*
X350652D02*
G75*
G02X350163I-244D01*
G01*
G75*
G02X350652I244*
G01*
X372384Y144848D02*
G75*
G02Y145337J244D01*
G01*
Y144848D02*
G75*
G02Y145337J244D01*
G01*
G75*
G02Y144848J-244*
G01*
X375565Y149935D02*
X414935D01*
Y70407*
X375565*
Y149935*
X475565Y110565D02*
Y149935D01*
X555093*
Y110565*
X475565*
Y170565D02*
Y209935D01*
X555093*
Y170565*
X475565*
X480652Y107384D02*
G75*
G02X480163I-244D01*
G01*
X480652D02*
G75*
G02X480163I-244D01*
G01*
G75*
G02X480652I244*
G01*
Y167384D02*
G75*
G02X480163I-244D01*
G01*
X480652D02*
G75*
G02X480163I-244D01*
G01*
G75*
G02X480652I244*
G01*
X560565Y170565D02*
Y209935D01*
X640093*
Y170565*
X560565*
X565652Y167384D02*
G75*
G02X565163I-244D01*
G01*
X565652D02*
G75*
G02X565163I-244D01*
G01*
G75*
G02X565652I244*
G01*
X587384Y144848D02*
G75*
G02Y145337J244D01*
G01*
Y144848D02*
G75*
G02Y145337J244D01*
G01*
G75*
G02Y144848J-244*
G01*
X590565Y149935D02*
X629935D01*
Y70407*
X590565*
Y149935*
X690565Y110565D02*
Y149935D01*
X770093*
Y110565*
X690565*
Y170565D02*
Y209935D01*
X770093*
Y170565*
X690565*
X695652Y107384D02*
G75*
G02X695163I-244D01*
G01*
X695652D02*
G75*
G02X695163I-244D01*
G01*
G75*
G02X695652I244*
G01*
Y167384D02*
G75*
G02X695163I-244D01*
G01*
X695652D02*
G75*
G02X695163I-244D01*
G01*
G75*
G02X695652I244*
G01*
X775565Y170565D02*
Y209935D01*
X855093*
Y170565*
X775565*
X780652Y167384D02*
G75*
G02X780163I-244D01*
G01*
X780652D02*
G75*
G02X780163I-244D01*
G01*
G75*
G02X780652I244*
G01*
X802384Y144848D02*
G75*
G02Y145337J244D01*
G01*
Y144848D02*
G75*
G02Y145337J244D01*
G01*
G75*
G02Y144848J-244*
G01*
X805565Y149935D02*
X844935D01*
Y70407*
X805565*
Y149935*
D02*
D12*
X25250Y202125D02*
Y209625D01*
Y205875D02*
X27125D01*
X31500Y209625*
X27125Y205875D02*
X31500Y202125D01*
X36500D02*
X39000D01*
X37750D02*
Y209625D01*
X36500Y208375*
X110250Y39125D02*
Y46625D01*
Y42875D02*
X112125D01*
X116500Y46625*
X112125Y42875D02*
X116500Y39125D01*
X120250Y39750D02*
X121500Y39125D01*
X123375*
X124625Y39750*
X125250Y41000*
Y41625*
X124625Y42875*
X123375Y43500*
X120250*
Y46625*
X125250*
X110250Y152125D02*
Y159625D01*
Y155875D02*
X112125D01*
X116500Y159625*
X112125Y155875D02*
X116500Y152125D01*
X120875Y152750D02*
X122125Y152125D01*
X123375*
X124625Y152750*
X125250Y154000*
X124625Y155250*
X123375Y155875*
X122125*
X123375D02*
X124625Y156500D01*
X125250Y157750*
X124625Y159000*
X123375Y159625*
X122125*
X120875Y159000*
X175250Y61125D02*
Y68625D01*
Y64875D02*
X177125D01*
X181500Y68625*
X177125Y64875D02*
X181500Y61125D01*
X188375D02*
Y68625D01*
X185250Y63625*
X190250*
X195250Y161125D02*
Y168625D01*
Y164875D02*
X197125D01*
X201500Y168625*
X197125Y164875D02*
X201500Y161125D01*
X210250D02*
X205250D01*
X209625Y165500*
X210250Y166750*
X209625Y168000*
X208375Y168625*
X206500*
X205250Y168000*
X240250Y202125D02*
Y209625D01*
Y205875D02*
X242125D01*
X246500Y209625*
X242125Y205875D02*
X246500Y202125D01*
X250250Y204000D02*
X250875Y205250D01*
X252125Y205875*
X253375*
X254625Y205250*
X255250Y204000*
X254625Y202750*
X253375Y202125*
X252125*
X250875Y202750*
X250250Y204000*
Y205875*
X250875Y207750*
X252125Y209000*
X253375Y209625*
X325250Y39125D02*
Y46625D01*
Y42875D02*
X327125D01*
X331500Y46625*
X327125Y42875D02*
X331500Y39125D01*
X336500D02*
X339000D01*
X337750D02*
Y46625D01*
X336500Y45375*
X345875Y39750D02*
X347125Y39125D01*
X348375*
X349625Y39750*
X350250Y41000*
Y44750*
X349625Y46000*
X348375Y46625*
X347125*
X345875Y46000*
X345250Y44750*
Y41000*
X345875Y39750*
X349625Y46000*
X325250Y152125D02*
Y159625D01*
Y155875D02*
X327125D01*
X331500Y159625*
X327125Y155875D02*
X331500Y152125D01*
X337125Y155875D02*
X338375D01*
X339625Y156500*
X340250Y157750*
X339625Y159000*
X338375Y159625*
X337125*
X335875Y159000*
X335250Y157750*
X335875Y156500*
X337125Y155875*
X335875Y155250*
X335250Y154000*
X335875Y152750*
X337125Y152125*
X338375*
X339625Y152750*
X340250Y154000*
X339625Y155250*
X338375Y155875*
X390250Y61125D02*
Y68625D01*
Y64875D02*
X392125D01*
X396500Y68625*
X392125Y64875D02*
X396500Y61125D01*
X402125D02*
X403375Y61750D01*
X404625Y63000*
X405250Y64875*
Y66750*
X404625Y68000*
X403375Y68625*
X402125*
X400875Y68000*
X400250Y66750*
X400875Y65500*
X402125Y64875*
X403375*
X404625Y65500*
X405250Y66750*
X410250Y161125D02*
Y168625D01*
Y164875D02*
X412125D01*
X416500Y168625*
X412125Y164875D02*
X416500Y161125D01*
X420250D02*
X425250Y168625D01*
X420250*
X445250Y202125D02*
Y209625D01*
Y205875D02*
X447125D01*
X451500Y209625*
X447125Y205875D02*
X451500Y202125D01*
X456500D02*
X459000D01*
X457750D02*
Y209625D01*
X456500Y208375*
X466500Y202125D02*
X469000D01*
X467750D02*
Y209625D01*
X466500Y208375*
X540250Y39125D02*
Y46625D01*
Y42875D02*
X542125D01*
X546500Y46625*
X542125Y42875D02*
X546500Y39125D01*
X551500D02*
X554000D01*
X552750D02*
Y46625D01*
X551500Y45375*
X560250Y39750D02*
X561500Y39125D01*
X563375*
X564625Y39750*
X565250Y41000*
Y41625*
X564625Y42875*
X563375Y43500*
X560250*
Y46625*
X565250*
X540250Y152125D02*
Y159625D01*
Y155875D02*
X542125D01*
X546500Y159625*
X542125Y155875D02*
X546500Y152125D01*
X551500D02*
X554000D01*
X552750D02*
Y159625D01*
X551500Y158375*
X560875Y152750D02*
X562125Y152125D01*
X563375*
X564625Y152750*
X565250Y154000*
X564625Y155250*
X563375Y155875*
X562125*
X563375D02*
X564625Y156500D01*
X565250Y157750*
X564625Y159000*
X563375Y159625*
X562125*
X560875Y159000*
X605250Y61125D02*
Y68625D01*
Y64875D02*
X607125D01*
X611500Y68625*
X607125Y64875D02*
X611500Y61125D01*
X616500D02*
X619000D01*
X617750D02*
Y68625D01*
X616500Y67375*
X628375Y61125D02*
Y68625D01*
X625250Y63625*
X630250*
X625250Y161125D02*
Y168625D01*
Y164875D02*
X627125D01*
X631500Y168625*
X627125Y164875D02*
X631500Y161125D01*
X636500D02*
X639000D01*
X637750D02*
Y168625D01*
X636500Y167375*
X650250Y161125D02*
X645250D01*
X649625Y165500*
X650250Y166750*
X649625Y168000*
X648375Y168625*
X646500*
X645250Y168000*
X660250Y202125D02*
Y209625D01*
Y205875D02*
X662125D01*
X666500Y209625*
X662125Y205875D02*
X666500Y202125D01*
X671500D02*
X674000D01*
X672750D02*
Y209625D01*
X671500Y208375*
X680250Y204000D02*
X680875Y205250D01*
X682125Y205875*
X683375*
X684625Y205250*
X685250Y204000*
X684625Y202750*
X683375Y202125*
X682125*
X680875Y202750*
X680250Y204000*
Y205875*
X680875Y207750*
X682125Y209000*
X683375Y209625*
X755250Y39125D02*
Y46625D01*
Y42875D02*
X757125D01*
X761500Y46625*
X757125Y42875D02*
X761500Y39125D01*
X770250D02*
X765250D01*
X769625Y43500*
X770250Y44750*
X769625Y46000*
X768375Y46625*
X766500*
X765250Y46000*
X775875Y39750D02*
X777125Y39125D01*
X778375*
X779625Y39750*
X780250Y41000*
Y44750*
X779625Y46000*
X778375Y46625*
X777125*
X775875Y46000*
X775250Y44750*
Y41000*
X775875Y39750*
X779625Y46000*
X755250Y152125D02*
Y159625D01*
Y155875D02*
X757125D01*
X761500Y159625*
X757125Y155875D02*
X761500Y152125D01*
X766500D02*
X769000D01*
X767750D02*
Y159625D01*
X766500Y158375*
X777125Y155875D02*
X778375D01*
X779625Y156500*
X780250Y157750*
X779625Y159000*
X778375Y159625*
X777125*
X775875Y159000*
X775250Y157750*
X775875Y156500*
X777125Y155875*
X775875Y155250*
X775250Y154000*
X775875Y152750*
X777125Y152125*
X778375*
X779625Y152750*
X780250Y154000*
X779625Y155250*
X778375Y155875*
X820250Y61125D02*
Y68625D01*
Y64875D02*
X822125D01*
X826500Y68625*
X822125Y64875D02*
X826500Y61125D01*
X831500D02*
X834000D01*
X832750D02*
Y68625D01*
X831500Y67375*
X842125Y61125D02*
X843375Y61750D01*
X844625Y63000*
X845250Y64875*
Y66750*
X844625Y68000*
X843375Y68625*
X842125*
X840875Y68000*
X840250Y66750*
X840875Y65500*
X842125Y64875*
X843375*
X844625Y65500*
X845250Y66750*
X840250Y161125D02*
Y168625D01*
Y164875D02*
X842125D01*
X846500Y168625*
X842125Y164875D02*
X846500Y161125D01*
X851500D02*
X854000D01*
X852750D02*
Y168625D01*
X851500Y167375*
X860250Y161125D02*
X865250Y168625D01*
X860250*
X0Y0D02*
M02*
